<?xml version="1.0" encoding="utf-8"?>
<!-- Uploaded to: SVG Repo, www.svgrepo.com, Generator: SVG Repo Mixer Tools -->
<svg width="800px" height="800px" viewBox="0 0 1024 1024" class="icon"  version="1.1" xmlns="http://www.w3.org/2000/svg"><path d="M839.9 833.2H541.8c-69.3 0-125.5-56.2-125.5-125.5l-28.9-494.9c0-69.3 56.2-125.5 125.5-125.5h355.8c69.3 0 125.5 56.2 125.5 125.5l-28.9 494.9c0.1 69.3-56.1 125.5-125.4 125.5z" fill="#EF6662" /><path d="M839.9 843.2H541.8c-74.6 0-135.3-60.6-135.5-135.2l-28.9-494.6v-0.6c0-74.7 60.8-135.5 135.5-135.5h355.8c74.7 0 135.5 60.8 135.5 135.5v0.6L975.4 708c-0.2 74.6-60.9 135.2-135.5 135.2zM397.5 212.5l28.9 494.6v0.6c0 63.7 51.8 115.5 115.5 115.5H840c63.7 0 115.5-51.8 115.5-115.5v-0.6l28.9-494.6c-0.3-63.5-52-115.2-115.6-115.2H513c-63.6 0-115.4 51.7-115.5 115.2z" fill="" /><path d="M396.3 363.6l20.1 344.1c0 69.3 56.2 125.5 125.5 125.5H840c69.3 0 125.5-56.2 125.5-125.5l20.1-344.1H396.3z" fill="#D64F34" /><path d="M839.9 843.2H541.8c-74.6 0-135.3-60.6-135.5-135.2l-20.1-343.8c-0.2-2.7 0.8-5.4 2.7-7.4 1.9-2 4.5-3.1 7.3-3.1h589.2c2.8 0 5.4 1.1 7.3 3.1 1.9 2 2.9 4.7 2.7 7.4l-20 343.8c-0.2 74.6-60.9 135.2-135.5 135.2z m-433-469.6l19.5 333.5v0.6c0 63.7 51.8 115.5 115.5 115.5H840c63.7 0 115.5-51.8 115.5-115.5v-0.6L975 373.6H406.9z" fill="" /><path d="M858.1 300.2H523.6c-1.6 0-2.9-1.3-2.9-2.9v-210H861v210c0 1.6-1.3 2.9-2.9 2.9z" fill="#D64F34" /><path d="M858.1 310.2H523.6c-7.1 0-12.9-5.8-12.9-12.9v-210c0-5.5 4.5-10 10-10H861c5.5 0 10 4.5 10 10v210c0 7.1-5.8 12.9-12.9 12.9z m-327.3-20H851V97.3H530.8v192.9z" fill="" /><path d="M95.969 526.144l124.237-124.238L520.3 702 396.062 826.237z" fill="#44C0C6" /><path d="M396 836.3c-2.6 0-5.1-1-7.1-2.9l-300-300.2c-3.9-3.9-3.9-10.2 0-14.1l124.2-124.2c1.9-1.9 4.4-2.9 7.1-2.9s5.2 1.1 7.1 2.9l300 300.1c3.9 3.9 3.9 10.2 0 14.1L403.1 833.3c-1.9 2-4.5 3-7.1 3zM110.1 526.2L396 812.1 506.1 702 220.2 416.1 110.1 526.2z" fill="" /><path d="M520.6 701.7L397.2 825.1l102.5 12.3 32.6 32.5 33.1-33.1-32.5-32.6z" fill="#B6B7B7" /><path d="M532.3 879.9c-2.6 0-5.1-1-7.1-2.9l-30.1-30.1L396 835c-3.8-0.5-7-3-8.3-6.7-1.3-3.6-0.3-7.6 2.4-10.3l123.4-123.4c2.7-2.7 6.7-3.6 10.3-2.4 3.6 1.3 6.2 4.5 6.7 8.3l11.9 99.1 30.1 30.1c1.9 1.9 2.9 4.4 2.9 7.1s-1.1 5.2-2.9 7.1L539.3 877c-1.9 2-4.5 2.9-7 2.9z m-113.5-62.3l82.1 9.8c2.2 0.3 4.3 1.3 5.9 2.9l25.5 25.5 19-19-25.5-25.5c-1.6-1.6-2.6-3.7-2.9-5.9l-9.8-82.1-94.3 94.3zM56 576.1c-2.6 0-5.1-1-7.1-2.9-3.9-3.9-3.9-10.2 0-14.1l204.2-204.2c3.9-3.9 10.2-3.9 14.1 0s3.9 10.2 0 14.1L63.1 573.2c-2 2-4.6 2.9-7.1 2.9zM36.1 444.6c-2.6 0-5.1-1-7.1-2.9-3.9-3.9-3.9-10.2 0-14.1l94-94c3.9-3.9 10.2-3.9 14.1 0 3.9 3.9 3.9 10.2 0 14.1l-94 94c-1.9 1.9-4.5 2.9-7 2.9zM257.7 543.5c-2.6 0-5.1-1-7.1-2.9-3.9-3.9-3.9-10.2 0-14.1l47-47c3.9-3.9 10.2-3.9 14.1 0 3.9 3.9 3.9 10.2 0 14.1l-47 47c-1.8 1.9-4.4 2.9-7 2.9zM321.1 606.9c-2.6 0-5.1-1-7.1-2.9-3.9-3.9-3.9-10.2 0-14.1l47-47c3.9-3.9 10.2-3.9 14.1 0 3.9 3.9 3.9 10.2 0 14.1l-47 47c-1.9 1.9-4.4 2.9-7 2.9zM384.5 670.2c-2.6 0-5.1-1-7.1-2.9-3.9-3.9-3.9-10.2 0-14.1l47-47c3.9-3.9 10.2-3.9 14.1 0 3.9 3.9 3.9 10.2 0 14.1l-47 47c-1.9 2-4.5 2.9-7 2.9z" fill="" /><path d="M625.9 941.9c-2.6 0-5.1-1-7.1-2.9l-70.1-70.1c-3.9-3.9-3.9-10.2 0-14.1 3.9-3.9 10.2-3.9 14.1 0l70.1 70.1c3.9 3.9 3.9 10.2 0 14.1-1.8 2-4.4 2.9-7 2.9zM150 470.9c-2.6 0-5.1-1-7.1-2.9l-70.1-70.1c-3.9-3.9-3.9-10.2 0-14.1 3.9-3.9 10.2-3.9 14.1 0l70.1 70.1c3.9 3.9 3.9 10.2 0 14.1-1.9 1.9-4.4 2.9-7 2.9z" fill="" /></svg>